<?xml version="1.0" encoding="utf-8"?>
<!-- Generator: Adobe Illustrator 19.0.0, SVG Export Plug-In . SVG Version: 6.00 Build 0)  -->
<svg version="1.1" id="Layer_1" xmlns="http://www.w3.org/2000/svg" xmlns:xlink="http://www.w3.org/1999/xlink" x="0px" y="0px"
	 viewBox="-49 141 512 512" enable-background="new -49 141 512 512" xml:space="preserve">
<path fill="#51C8E8" d="M-11.9,270.7v225.6c-0.1,0-0.1,0-0.2,0c-1.4-0.8-8.3-5.6-8.3-22V213h87.1l22.5,21.7c2.1,2,4.9,3.2,7.9,3.2
	h238.8V251H7.8C-3.1,251.1-11.9,259.9-11.9,270.7z M186.4,497H10.8V273.7H367v79.6c0,6.2,5.1,11.3,11.3,11.3s11.3-5.1,11.3-11.3
	v-82.6c0-10.8-8.8-19.6-19.6-19.6h-11.5V235c0-10.8-8.8-19.6-19.6-19.6H101.7l-22.5-21.7c-2.1-2-4.9-3.2-7.9-3.2h-94.7
	C-34.2,190.4-43,199.2-43,210v264.2c0,30.4,17.7,44.6,29.6,44.6c3.4,0,6.4-1.5,8.5-3.9c3.4,2.9,7.8,4.7,12.7,4.7h178.6
	c6.3,0,11.3-5.1,11.3-11.3C197.7,502.1,192.7,497,186.4,497z"/>
<path fill="#51C8E8" d="M222,417.5c-2.1,0-4.1,1.9-4.1,4.1v124.2c0,2.1,1.9,4.1,4.1,4.1h37.6c2.1,0,4.1-1.9,4.1-4.1V421.6
	c0-2.1-1.9-4.1-4.1-4.1H222z"/>
<path fill="#51C8E8" d="M282.9,366.8c-2.1,0-4.1,1.9-4.1,4.1v175c0,2.1,1.9,4.1,4.1,4.1h37.6c2.1,0,4.1-1.9,4.1-4.1v-175
	c0-2.1-1.9-4.1-4.1-4.1L282.9,366.8L282.9,366.8z"/>
<path fill="#51C8E8" d="M343.9,442.9c-2.1,0-4.1,1.9-4.1,4.1v98.8c0,2.1,1.9,4.1,4.1,4.1h37.6c2.1,0,4.1-1.9,4.1-4.1V447
	c0-2.1-1.9-4.1-4.1-4.1H343.9z"/>
<path fill="#51C8E8" d="M404.8,316c-2.1,0-4.1,1.9-4.1,4.1v225.7c0,2.1,1.9,4.1,4.1,4.1h37.6c2.1,0,4.1-1.9,4.1-4.1V320.1
	c0-2.1-1.9-4.1-4.1-4.1H404.8z"/>
</svg>
