<?xml version="1.0" encoding="utf-8"?>
<!-- Generator: Adobe Illustrator 19.0.0, SVG Export Plug-In . SVG Version: 6.00 Build 0)  -->
<svg version="1.1" id="Layer_1" xmlns="http://www.w3.org/2000/svg" xmlns:xlink="http://www.w3.org/1999/xlink" x="0px" y="0px"
	 viewBox="0 0 560 560" enable-background="new 0 0 560 560" xml:space="preserve">
<path id="XMLID_15_" fill="#F6881F" stroke="#F6881F" stroke-miterlimit="10" d="M180,51.9h141.1V110H180V51.9z M298.2,489.2
	c0-7.4-6-13.4-13.4-13.4H85.2c-0.8,0-2.2-0.8-2.4-1.3V81.7h70.4v13.4v13.4v14.9c0,7.4,6,13.4,13.4,13.4h167.9
	c7.4,0,13.4-6,13.4-13.4v-14.9V95.1V81.7h67.4v217.2c0,7.4,6,13.4,13.4,13.4s13.4-6,13.4-13.4V68.3c0-7.4-6-13.4-13.4-13.4h-80.9
	V38.5c0-7.4-6-13.4-13.4-13.4H166.6c-7.4,0-13.4,6-13.4,13.4v16.3H69.4c-7.4,0-13.4,6-13.4,13.4v406.2c0,16.8,15.1,28.1,29.3,28.1
	h199.6C292.2,502.6,298.2,496.6,298.2,489.2z"/>
<path id="XMLID_14_" fill="#F6881F" stroke="#F6881F" stroke-miterlimit="10" d="M343.4,169.1H152.9c-2.5,0-4.5,2-4.5,4.5
	s2,4.5,4.5,4.5h190.5c2.5,0,4.5-2,4.5-4.5C347.8,171.1,345.8,169.1,343.4,169.1z"/>
<path id="XMLID_13_" fill="#F6881F" stroke="#F6881F" stroke-miterlimit="10" d="M343.4,221.8H152.9c-2.5,0-4.5,2-4.5,4.5
	s2,4.5,4.5,4.5h190.5c2.5,0,4.5-2,4.5-4.5S345.8,221.8,343.4,221.8z"/>
<path id="XMLID_12_" fill="#F6881F" stroke="#F6881F" stroke-miterlimit="10" d="M343.4,271.3H152.9c-2.5,0-4.5,2-4.5,4.5
	s2,4.5,4.5,4.5h190.5c2.5,0,4.5-2,4.5-4.5C347.8,273.4,345.8,271.3,343.4,271.3z"/>
<path id="XMLID_11_" fill="#F6881F" stroke="#F6881F" stroke-miterlimit="10" d="M285.2,325.9c0-2.5-2-4.5-4.5-4.5H154.4
	c-2.5,0-4.5,2-4.5,4.5s2,4.5,4.5,4.5h126.3C283.2,330.4,285.2,328.3,285.2,325.9z"/>
<g id="XMLID_7_">
	
		<polyline id="XMLID_3_" fill="none" stroke="#F6881F" stroke-width="14.6048" stroke-linecap="round" stroke-linejoin="round" stroke-miterlimit="10" points="
		265.9,400.3 289.3,423.7 313.2,400.3 	"/>
	
		<path id="XMLID_2_" fill="none" stroke="#F6881F" stroke-width="14.6048" stroke-linecap="round" stroke-linejoin="round" stroke-miterlimit="10" d="
		M289.3,412c0-50.1,40.4-90.6,90.6-90.6s90.6,40.4,90.6,90.6s-40.4,90.6-90.6,90.6c-24.3,0-46.2-9.7-62.3-25.3"/>
	
		<polyline id="XMLID_4_" fill="none" stroke="#F6881F" stroke-width="14.6048" stroke-linecap="round" stroke-linejoin="round" stroke-miterlimit="10" points="
		376.9,362.8 376.9,413 410.5,440.7 	"/>
</g>
</svg>
