<?xml version="1.0" encoding="utf-8"?>
<!-- Generator: Adobe Illustrator 19.0.0, SVG Export Plug-In . SVG Version: 6.00 Build 0)  -->
<svg version="1.1" id="Layer_1" xmlns="http://www.w3.org/2000/svg" xmlns:xlink="http://www.w3.org/1999/xlink" x="0px" y="0px"
	 viewBox="-49 141 512 512" enable-background="new -49 141 512 512" xml:space="preserve">
<path fill="#FFFFFF" d="M146.4,489.7c-4.2,0.1-8.4,1.2-12.2,3.5c-12.3,7.2-16.6,23-9.4,35.3c7.2,12.3,23,16.5,35.3,9.4
	c12.3-7.2,16.5-23,9.4-35.3C164.6,494.1,155.6,489.4,146.4,489.7L146.4,489.7z M328.9,415.8c-4.2,0.1-8.4,1.2-12.2,3.5
	c-12.3,7.2-16.5,23-9.4,35.3c7.2,12.3,23,16.6,35.3,9.4s16.6-23,9.4-35.3C347.1,420.2,338.1,415.6,328.9,415.8L328.9,415.8z
	 M69,369.6c-4.6-0.1-9.2,1-13.5,3.5c-12.3,7.2-16.6,23-9.4,35.3s23,16.5,35.3,9.4c12.3-7.2,16.5-23,9.4-35.3
	C86.2,374.4,77.7,369.8,69,369.6z M302.2,278.6c-4.2,0.1-8.4,1.2-12.2,3.5c-12.3,7.2-16.5,23-9.4,35.3c7.2,12.3,23,16.5,35.3,9.4
	c12.3-7.2,16.5-23,9.4-35.3C320.4,283,311.4,278.3,302.2,278.6z M116.2,267.9c-4.6-0.1-9.2,1-13.5,3.5c-12.3,7.2-16.6,23-9.4,35.3
	c7.2,12.3,23,16.5,35.3,9.4c12.3-7.2,16.5-23,9.4-35.3C133.3,272.7,124.9,268.1,116.2,267.9z"/>
<path fill="#FFFFFF" d="M184.1,405.5L143.7,511c-0.7,1.8-0.4,3.7,0.8,5.2s3.1,2.2,4.9,1.9c1.9-0.3,3.4-1.6,4.1-3.3l40.3-105.3
	C190.4,408.5,187.2,407.2,184.1,405.5z M250.9,383.9c-1.6,3.1-3.5,6.1-5.7,8.8l78.4,50.9c2.4,1.6,5.7,0.9,7.2-1.5
	c1.6-2.4,0.9-5.7-1.5-7.3L250.9,383.9z M158.2,368.1l-89.8,22.4c-1.9,0.4-3.4,1.8-3.9,3.6s0,3.8,1.3,5.2c1.3,1.4,3.3,1.9,5.2,1.4
	l89.6-22.3c-1.1-3.2-2-6.5-2.4-9.9C158.2,368.3,158.2,368.2,158.2,368.1L158.2,368.1z M301.7,299.1c-1,0-2,0.3-2.9,0.8l-53.3,32
	c2.1,2.8,3.9,5.8,5.4,9l53.3-32c2-1.2,3-3.6,2.4-5.9C306.1,300.8,304.1,299.2,301.7,299.1z M116.5,289.6c-2.2,0.1-4.2,1.6-4.8,3.7
	c-0.6,2.1,0.2,4.5,2,5.8l51.2,38c1.8-3,4-5.8,6.4-8.3l-51.4-38.1C118.9,289.9,117.7,289.5,116.5,289.6z"/>
<path fill="#FFFFFF" d="M180.7,317.1c16.1-9.4,36-9.5,52.2-0.3c16.2,9.3,26.2,26.5,26.2,45.1s-10,35.9-26.1,45.2
	c-16.1,9.4-36,9.5-52.2,0.3c-16.2-9.3-26.2-26.5-26.2-45.1C154.6,343.6,164.6,326.4,180.7,317.1z"/>
<path fill="#FFFFFF" d="M-20.5,475.6C19.1,585,132.2,650.2,246.7,629.9l-8.4-47.3c-91.6,16.3-182.1-35.9-213.8-123.4L-20.5,475.6z"
	/>
<path fill="#FFFFFF" d="M-31.3,435.3l47.3-8.4c-17.2-97,42.4-192.8,139.3-218.8c11-2.9,22-4.9,33-5.8l-4.2-47.8
	c-13.7,1.2-27.5,3.6-41.2,7.3C21.7,194.3-52.9,314-31.3,435.3z"/>
<path fill="#FFFFFF" d="M270.6,573.9L287,619c115.8-42,182.2-166.4,149.8-287.6c-9.4-35-26.1-66.2-48-92.2L352,270.1
	c17.5,20.8,30.9,45.7,38.4,73.8C416.4,440.8,363.3,540.3,270.6,573.9z"/>
<path fill="#FFFFFF" d="M221.7,202.3c39.6,3.5,76.8,19.2,106.7,44.3l30.9-36.8c-37.4-31.3-83.9-51-133.4-55.3L221.7,202.3z"/>
</svg>
