<?xml version="1.0" encoding="utf-8"?>
<!-- Generator: Adobe Illustrator 19.0.0, SVG Export Plug-In . SVG Version: 6.00 Build 0)  -->
<svg version="1.1" id="Layer_1" xmlns="http://www.w3.org/2000/svg" xmlns:xlink="http://www.w3.org/1999/xlink" x="0px" y="0px"
	 viewBox="-49 141 512 512" style="enable-background:new -49 141 512 512;" xml:space="preserve">
<style type="text/css">
	.st0{clip-path:url(#SVGID_2_);fill:#51C8E8;}
	.st1{clip-path:url(#SVGID_4_);fill:#51C8E8;}
	.st2{clip-path:url(#SVGID_6_);fill:#51C8E8;}
	.st3{clip-path:url(#SVGID_8_);fill:#51C8E8;}
	.st4{clip-path:url(#SVGID_10_);fill:#51C8E8;}
	.st5{clip-path:url(#SVGID_12_);fill:#51C8E8;}
</style>
<g>
	<g>
		<g>
			<defs>
				<rect id="SVGID_1_" x="-48" y="141" width="512" height="512"/>
			</defs>
			<clipPath id="SVGID_2_">
				<use xlink:href="#SVGID_1_"  style="overflow:visible;"/>
			</clipPath>
			<path class="st0" d="M24.8,431.4c2.4,0,4.8,0.4,7.2,0.8V240.6c0-13.2,10.8-23.6,24-23.6h308c13.2,0,24,10.4,24,23.6v35.6
				c2.8-0.8,5.6-0.8,8.8-0.8c2.4,0,4.8,0.4,7.2,0.8V241c0-22-22-39.6-44-39.6H56c-22,0-40,17.6-40,39.6v191.6
				C18.8,431.8,21.6,431.4,24.8,431.4z"/>
		</g>
	</g>
</g>
<g>
	<g>
		<g>
			<defs>
				<rect id="SVGID_3_" x="-48" y="141" width="512" height="512"/>
			</defs>
			<clipPath id="SVGID_4_">
				<use xlink:href="#SVGID_3_"  style="overflow:visible;"/>
			</clipPath>
			<path class="st1" d="M396.8,358.6c-3.2,0-6-0.4-8.8-0.8V541c0,13.2-10.8,24.4-24,24.4H56c-13.2,0-24-11.2-24-24.4v-26.8
				c-2.4,0.4-4.8,0.8-7.2,0.8c-3.2,0-6-0.4-8.8-0.8v27.2c0,22,18,40.4,40,40.4h308c22,0,40-18.4,40-40.4V357.8
				C401.6,358.2,399.2,358.6,396.8,358.6z"/>
		</g>
	</g>
</g>
<g>
	<g>
		<g>
			<defs>
				<rect id="SVGID_5_" x="-48" y="141" width="512" height="512"/>
			</defs>
			<clipPath id="SVGID_6_">
				<use xlink:href="#SVGID_5_"  style="overflow:visible;"/>
			</clipPath>
			<path class="st2" d="M336,469h-44v-44h44V469z M336,521h-44v-44h44V521z M284,521h-44v-44h44V521z M232,521h-44v-44h44V521z
				 M180,469h-44v-44h44V469z M180,521h-44v-44h44V521z M128,521H84v-44h44V521z M332,373h4v44h-44v-17.6l-8,5.2V417h-6
				c0,1.2,0.4,2.8,0.4,4s0,2.8-0.4,4h6v44h-44v-6.4c-1.2,0-2,0-3.2,0c-1.6,0-3.2,0-4.8-0.4v6.8h-44v-44h7.2c0-1.2-0.4-2.8-0.4-4
				s0-2.4,0-4l0,0H188v-6.8l-8-4V417h-44v-6.4c-1.2,0-2,0-3.2,0c-1.6,0-3.2,0-4.8-0.4v6.8h-27.6l-8.4,8h36v44H84v-36.4l-8,7.6V469
				H66c0,1.2,0.4,2.8,0.4,4s0,2.8-0.4,4h10v44H40v8h36v28h8v-28h44v28h8v-28h44v28h8v-28h44v28h8v-28h44v28h8v-28h44v28h8v-28h36v-8
				h-36v-44h36v-8h-36v-44h36v-8h-36v-44h36v-8h-35.6L332,373z"/>
		</g>
	</g>
</g>
<g>
	<g>
		<g>
			<defs>
				<rect id="SVGID_7_" x="-48" y="141" width="512" height="512"/>
			</defs>
			<clipPath id="SVGID_8_">
				<use xlink:href="#SVGID_7_"  style="overflow:visible;"/>
			</clipPath>
			<path class="st3" d="M84,269h44v44H84V269z M136,269h44v44h-44V269z M188,321h44v44h-44V321z M188,269h44v44h-44V269z M240,321
				h44v44h-44V321z M240,269h44v44h-44V269z M292,269h44v44h-44V269z M76,407l8-7.6V373h7.2c0-1.2-0.4-2.8-0.4-4s0-2.8,0.4-4H84v-44
				h44v6.8c1.6,0,3.2-0.4,4.8-0.4c1.2,0,2,0,3.2,0V321h44v44h-6c0,1.2,0.4,2.8,0.4,4s0,2.4,0,4l0,0h5.6v6.4l8,4V373h44v6.8
				c1.6,0,4-0.4,5.6-0.4c0.4,0-1.6,0,2.4,0V373h44v2.8l16.4-10.8H292v-44h44v20.8l8-5.2V321h11.2c0-1.2-0.4-2.8-0.4-4s0-2.8,0.4-4
				H344v-44h36v-8h-36v-36h-8v36h-42h-2v-36h-8v36h-44v-36h-8v36h-44v-36h-8v36h-44v-36h-8v36H84v-36h-8v36H40v8h36v44H40v8h36v44
				H40v8h36V407z"/>
		</g>
	</g>
</g>
<g>
	<g>
		<g>
			<defs>
				<rect id="SVGID_9_" x="-48" y="141" width="512" height="512"/>
			</defs>
			<clipPath id="SVGID_10_">
				<use xlink:href="#SVGID_9_"  style="overflow:visible;"/>
			</clipPath>
			<polygon class="st4" points="65.6,417 40,417 40,425 57.2,425 			"/>
		</g>
	</g>
</g>
<g>
	<g>
		<g>
			<defs>
				<rect id="SVGID_11_" x="-48" y="141" width="512" height="512"/>
			</defs>
			<clipPath id="SVGID_12_">
				<use xlink:href="#SVGID_11_"  style="overflow:visible;"/>
			</clipPath>
			<path class="st5" d="M396.8,334.6c-9.6,0-17.6-8-17.6-17.6s8-17.6,17.6-17.6s17.6,8,17.6,17.6S406.4,334.6,396.8,334.6z
				 M236.8,438.6c-9.6,0-17.6-8-17.6-17.6s8-17.6,17.6-17.6s17.6,8,17.6,17.6S246.4,438.6,236.8,438.6z M132.8,386.6
				c-9.6,0-17.6-8-17.6-17.6s8-17.6,17.6-17.6s17.6,8,17.6,17.6S142.4,386.6,132.8,386.6z M24.8,490.6c-9.6,0-17.6-8-17.6-17.6
				s8-17.6,17.6-17.6s17.6,8,17.6,17.6S34.4,490.6,24.8,490.6z M396.8,283.4c-18.4,0-33.6,15.2-33.6,33.6c0,5.2,1.2,10,3.2,14.4
				l-104,68c-6-7.2-15.6-12-25.6-12c-11.6,0-22,6-28,15.2l-44.4-22c1.2-3.6,2-7.2,2-11.2c0-18.4-15.2-33.6-33.6-33.6
				S99.2,351,99.2,369.4c0,7.6,2.4,14.8,6.8,20.4l-60,57.6c-5.6-4.8-13.2-7.6-21.2-7.6c-18.4,0-33.6,15.2-33.6,33.6
				S6.4,507,24.8,507s33.6-15.2,33.6-33.6c0-7.6-2.4-14.8-6.8-20.4l60-57.6c5.6,4.8,13.2,7.6,21.2,7.6c11.6,0,22-6,28-15.2l44.4,22
				c-1.2,3.6-2,7.2-2,11.2c0,18.4,15.2,33.6,33.6,33.6s33.6-15.2,33.6-33.6c0-5.2-1.2-10.4-3.6-14.8l104-68c6,7.6,15.6,12.4,26,12.4
				c18.4,0,33.6-15.2,33.6-33.6C430.4,298.6,415.2,283.4,396.8,283.4z"/>
		</g>
	</g>
</g>
</svg>
