<?xml version="1.0" encoding="utf-8"?>
<!-- Generator: Adobe Illustrator 19.0.0, SVG Export Plug-In . SVG Version: 6.00 Build 0)  -->
<svg version="1.1" id="Layer_1" xmlns="http://www.w3.org/2000/svg" xmlns:xlink="http://www.w3.org/1999/xlink" x="0px" y="0px"
	 viewBox="-23 25 512 512" enable-background="new -23 25 512 512" xml:space="preserve">
<path fill="#F6881F" d="M173.4,383.1c-4.2,0.1-8.4,1.2-12.2,3.5c-12.3,7.2-16.6,23-9.4,35.3c7.2,12.3,23,16.5,35.3,9.4
	c12.3-7.2,16.5-23,9.4-35.3C191.6,387.5,182.6,382.8,173.4,383.1L173.4,383.1z M355.9,309.2c-4.2,0.1-8.4,1.2-12.2,3.5
	c-12.3,7.2-16.5,23-9.4,35.3c7.2,12.3,23,16.6,35.3,9.4s16.6-23,9.4-35.3C374.1,313.6,365.1,309,355.9,309.2L355.9,309.2z M96,263
	c-4.6-0.1-9.2,1-13.5,3.5c-12.3,7.2-16.6,23-9.4,35.3s23,16.5,35.3,9.4c12.3-7.2,16.5-23,9.4-35.3C113.2,267.8,104.7,263.2,96,263z
	 M329.2,172c-4.2,0.1-8.4,1.2-12.2,3.5c-12.3,7.2-16.5,23-9.4,35.3c7.2,12.3,23,16.5,35.3,9.4c12.3-7.2,16.5-23,9.4-35.3
	C347.4,176.4,338.4,171.7,329.2,172z M143.2,161.3c-4.6-0.1-9.2,1-13.5,3.5c-12.3,7.2-16.6,23-9.4,35.3s23,16.5,35.3,9.4
	c12.3-7.2,16.5-23,9.4-35.3C160.3,166.1,151.9,161.5,143.2,161.3z"/>
<path fill="#F6881F" d="M211.1,298.9l-40.4,105.5c-0.7,1.8-0.4,3.7,0.8,5.2s3.1,2.2,4.9,1.9c1.9-0.3,3.4-1.6,4.1-3.3l40.3-105.3
	C217.4,301.9,214.2,300.6,211.1,298.9z M277.9,277.3c-1.6,3.1-3.5,6.1-5.7,8.8l78.4,50.9c2.4,1.6,5.7,0.9,7.2-1.5
	c1.6-2.4,0.9-5.7-1.5-7.3L277.9,277.3z M185.2,261.5l-89.8,22.4c-1.9,0.4-3.4,1.8-3.9,3.6s0,3.8,1.3,5.2c1.3,1.4,3.3,1.9,5.2,1.4
	l89.6-22.3c-1.1-3.2-2-6.5-2.4-9.9C185.2,261.7,185.2,261.6,185.2,261.5L185.2,261.5z M328.7,192.5c-1,0-2,0.3-2.9,0.8l-53.3,32
	c2.1,2.8,3.9,5.8,5.4,9l53.3-32c2-1.2,3-3.6,2.4-5.9C333.1,194.2,331.1,192.6,328.7,192.5z M143.5,183c-2.2,0.1-4.2,1.6-4.8,3.7
	c-0.6,2.1,0.2,4.5,2,5.8l51.2,38c1.8-3,4-5.8,6.4-8.3l-51.4-38.1C145.9,183.3,144.7,182.9,143.5,183z"/>
<path fill="#F6881F" d="M207.7,210.5c16.1-9.4,36-9.5,52.2-0.3c16.2,9.3,26.2,26.5,26.2,45.1s-10,35.9-26.1,45.2
	c-16.1,9.4-36,9.5-52.2,0.3c-16.2-9.3-26.2-26.5-26.2-45.1C181.6,237,191.6,219.8,207.7,210.5z"/>
<path fill="#F6881F" d="M6.5,369c39.6,109.4,152.7,174.6,267.2,154.3l-8.4-47.3c-91.6,16.3-182.1-35.9-213.8-123.4L6.5,369z"/>
<path fill="#F6881F" d="M-4.3,328.7l47.3-8.4c-17.2-97,42.4-192.8,139.3-218.8c11-2.9,22-4.9,33-5.8l-4.2-47.8
	c-13.7,1.2-27.5,3.6-41.2,7.3C48.7,87.7-25.9,207.4-4.3,328.7z"/>
<path fill="#F6881F" d="M297.6,467.3l16.4,45.1c115.8-42,182.2-166.4,149.8-287.6c-9.4-35-26.1-66.2-48-92.2L379,163.5
	c17.5,20.8,30.9,45.7,38.4,73.8C443.4,334.2,390.3,433.7,297.6,467.3z"/>
<path fill="#F6881F" d="M248.7,95.7c39.6,3.5,76.8,19.2,106.7,44.3l30.9-36.8c-37.4-31.3-83.9-51-133.4-55.3L248.7,95.7z"/>
</svg>
