<?xml version="1.0" encoding="utf-8"?>
<!-- Generator: Adobe Illustrator 19.0.0, SVG Export Plug-In . SVG Version: 6.00 Build 0)  -->
<svg version="1.1" id="Layer_1" xmlns="http://www.w3.org/2000/svg" xmlns:xlink="http://www.w3.org/1999/xlink" x="0px" y="0px"
	 viewBox="-49 141 512 512" enable-background="new -49 141 512 512" xml:space="preserve">
<g>
	<g>
		<defs>
			<rect id="SVGID_1_" x="-43" y="149" width="499" height="499"/>
		</defs>
		<clipPath id="SVGID_2_">
			<use xlink:href="#SVGID_1_"  overflow="visible"/>
		</clipPath>
		<path clip-path="url(#SVGID_2_)" fill="#FFFFFF" d="M331.8,541.6l-21.1-21.1l94.5-94.5l21.2,21.1L331.8,541.6z M288.5,563.7
			l9-21.5l12.6,12.6L288.5,563.7z M452.4,438.4l-38.6-38.5c-4.8-4.8-12.6-4.8-17.4,0L284.5,511.7c-0.3,0.3-0.5,0.6-0.7,0.9
			c-0.2,0.2-0.4,0.5-0.6,0.7c-0.5,0.7-0.9,1.4-1.2,2.2c0,0.1-0.1,0.1-0.1,0.2v0.1c0,0,0,0,0,0.1l-27.5,66c-1.9,4.6-0.9,9.9,2.7,13.4
			c2.4,2.4,5.5,3.6,8.7,3.6c1.6,0,3.2-0.3,4.7-1l66-27.5c0,0,0,0,0.1,0h0.1c0.1,0,0.1-0.1,0.2-0.1c0.8-0.3,1.5-0.8,2.2-1.2
			c0.3-0.2,0.5-0.4,0.7-0.6c0.3-0.2,0.6-0.4,0.9-0.7l111.9-111.9c2.3-2.3,3.6-5.5,3.6-8.7S454.7,440.7,452.4,438.4z"/>
	</g>
</g>
<g>
	<g>
		<defs>
			<rect id="SVGID_3_" x="-43" y="149" width="499" height="499"/>
		</defs>
		<clipPath id="SVGID_4_">
			<use xlink:href="#SVGID_3_"  overflow="visible"/>
		</clipPath>
		<path clip-path="url(#SVGID_4_)" fill="#FFFFFF" d="M-9.2,285.4v245.3c-0.1,0-0.1,0-0.2,0c-1.5-0.9-9-6.1-9-23.9V222.7h94.8
			l24.4,23.6c2.3,2.2,5.4,3.5,8.5,3.5H369V264H12.2C0.4,264.1-9.2,273.7-9.2,285.4z M243.2,531.6H15.5V288.7h387.4v86.6
			c0,6.8,5.5,12.3,12.3,12.3s12.3-5.5,12.3-12.3v-89.8c0-11.8-9.6-21.3-21.3-21.3h-12.5v-17.5c0-11.8-9.6-21.3-21.3-21.3h-258
			L90,201.8c-2.3-2.2-5.4-3.5-8.6-3.5h-103c-11.8-0.2-21.4,9.4-21.4,21.2v287.3c0,33.1,19.2,48.5,32.2,48.5c3.7,0,7-1.7,9.2-4.3
			c3.7,3.2,8.5,5.2,13.8,5.2h231c6.8,0,12.3-5.5,12.3-12.3C255.5,537.1,250,531.6,243.2,531.6z"/>
	</g>
</g>
</svg>
