<?xml version="1.0" encoding="utf-8"?>
<!-- Generator: Adobe Illustrator 19.0.0, SVG Export Plug-In . SVG Version: 6.00 Build 0)  -->
<svg version="1.1" id="Layer_1" xmlns="http://www.w3.org/2000/svg" xmlns:xlink="http://www.w3.org/1999/xlink" x="0px" y="0px"
	 viewBox="-49 141 512 512" style="enable-background:new -49 141 512 512;" xml:space="preserve">
<style type="text/css">
	.st0{clip-path:url(#SVGID_2_);fill:#51C8E8;}
	.st1{clip-path:url(#SVGID_4_);fill:#51C8E8;}
	.st2{clip-path:url(#SVGID_6_);fill:#51C8E8;}
	.st3{clip-path:url(#SVGID_8_);fill:#51C8E8;}
	.st4{clip-path:url(#SVGID_10_);fill:#51C8E8;}
	.st5{clip-path:url(#SVGID_12_);fill:#51C8E8;}
</style>
<g>
	<g>
		<g>
			<defs>
				<rect id="SVGID_1_" x="-48" y="137" width="512" height="512"/>
			</defs>
			<clipPath id="SVGID_2_">
				<use xlink:href="#SVGID_1_"  style="overflow:visible;"/>
			</clipPath>
			<path class="st0" d="M258.9,231.8c26.2,0,48.2,7.5,63.7,21.1c15.5,13.6,25.4,33.4,26.2,62.3c0.2,6.2,4,11.7,9.8,14
				c39,15.4,68.4,58.1,68.4,109.3c0,65-46.4,115.7-101.7,115.7h-254c-44.6,0-82.2-40.9-82.2-93.8c0-46.7,29.8-84.2,66.9-92.2
				c8-1.7,13.3-9.4,12.1-17.5c-0.5-3.5-0.8-7-0.8-10.6c0-34.8,24.5-61,52.9-61c10,0,19.3,3.2,27.4,8.9c4,2.8,9.1,3.6,13.7,2.1
				c4.6-1.5,8.3-5.1,9.9-9.7c6.5-19.1,17.3-30.1,32.2-37.7S237.5,231.8,258.9,231.8L258.9,231.8z M258.9,200.8
				c-24.5,0-48.6,3.6-69.6,14.3c-16.3,8.3-30.5,21.3-40.2,38.9c-9-3.7-18.8-5.9-29-5.9c-47.2,0-83.9,42.3-83.9,92.1
				c0,0.5,0.1,1.1,0.1,1.6C-9.8,358.2-42,405.6-42,460.4c0,67.9,49.9,124.8,113.2,124.8h254c74.1,0,132.8-66.8,132.8-146.7
				c0-59.3-31.8-111-78.9-134.1c-3-31.4-15.9-57.2-36-74.8C320.9,210.1,291,200.8,258.9,200.8L258.9,200.8z"/>
		</g>
	</g>
</g>
<g>
	<g>
		<g>
			<defs>
				<rect id="SVGID_3_" x="-48" y="137" width="512" height="512"/>
			</defs>
			<clipPath id="SVGID_4_">
				<use xlink:href="#SVGID_3_"  style="overflow:visible;"/>
			</clipPath>
			<path class="st1" d="M93.5,425.9c-2.6,0-4.9,1.3-6.4,3.4l-25.4,36.2c-1.7,2.3-2,5.3-0.8,7.8s3.6,4.3,6.4,4.5s5.5-1.1,7.1-3.4
				l25.4-36.2c1.7-2.4,1.9-5.5,0.6-8.1C99.2,427.5,96.5,425.9,93.5,425.9z M148.8,413.3c-3.6,0-6.7,2.5-7.5,6s0.9,7.1,4.1,8.7
				l66.3,34.1c2.5,1.3,5.4,1.1,7.8-0.4c2.3-1.5,3.7-4.1,3.6-6.9s-1.8-5.3-4.2-6.5l-66.3-34.1C151.4,413.6,150.1,413.3,148.8,413.3
				L148.8,413.3z M318.4,384.7c-2.3,0-4.5,1-5.9,2.8l-44.1,51.1c-2,2.1-2.7,5.1-1.8,7.8c0.9,2.7,3.2,4.8,6.1,5.2
				c2.8,0.5,5.7-0.6,7.5-2.9l44.1-51.1c2-2.3,2.5-5.5,1.3-8.3C324.2,386.5,321.4,384.7,318.4,384.7L318.4,384.7z"/>
		</g>
	</g>
</g>
<g>
	<g>
		<g>
			<defs>
				<rect id="SVGID_5_" x="-48" y="137" width="512" height="512"/>
			</defs>
			<clipPath id="SVGID_6_">
				<use xlink:href="#SVGID_5_"  style="overflow:visible;"/>
			</clipPath>
			<path class="st2" d="M45.3,493.1c3.6-0.7,6.8,1.4,7.6,5c0.7,3.6-1.4,6.9-5,7.6s-6.8-1.5-7.6-5C39.6,497.1,41.7,493.8,45.3,493.1z
				 M42.2,477.9c-11.8,2.4-19.5,14.1-17.1,25.8c2.4,11.8,14.1,19.5,25.8,17.1c11.8-2.4,19.5-14.1,17.1-25.9
				C65.6,483.2,53.9,475.5,42.2,477.9L42.2,477.9z"/>
		</g>
	</g>
</g>
<g>
	<g>
		<g>
			<defs>
				<rect id="SVGID_7_" x="-48" y="137" width="512" height="512"/>
			</defs>
			<clipPath id="SVGID_8_">
				<use xlink:href="#SVGID_7_"  style="overflow:visible;"/>
			</clipPath>
			<path class="st3" d="M114.6,398.6c3.6-0.7,6.8,1.4,7.6,5c0.7,3.6-1.4,6.9-5,7.6s-6.8-1.5-7.6-5
				C108.9,402.6,111.1,399.4,114.6,398.6z M111.5,383.4c-11.8,2.4-19.5,14.1-17.1,25.8c2.4,11.8,14.1,19.5,25.8,17.1
				c11.8-2.4,19.5-14.1,17.1-25.9C135,388.8,123.3,381,111.5,383.4L111.5,383.4z"/>
		</g>
	</g>
</g>
<g>
	<g>
		<g>
			<defs>
				<rect id="SVGID_9_" x="-48" y="137" width="512" height="512"/>
			</defs>
			<clipPath id="SVGID_10_">
				<use xlink:href="#SVGID_9_"  style="overflow:visible;"/>
			</clipPath>
			<path class="st4" d="M247.6,463c3.6-0.7,6.8,1.4,7.6,5c0.7,3.6-1.4,6.9-5,7.6s-6.8-1.5-7.6-5C241.9,467,244,463.7,247.6,463z
				 M244.5,447.8c-11.8,2.4-19.5,14.1-17.1,25.8c2.4,11.8,14.1,19.5,25.8,17.1c11.8-2.4,19.5-14.1,17.1-25.9
				S256.2,445.4,244.5,447.8L244.5,447.8z"/>
		</g>
	</g>
</g>
<g>
	<g>
		<g>
			<defs>
				<rect id="SVGID_11_" x="-48" y="137" width="512" height="512"/>
			</defs>
			<clipPath id="SVGID_12_">
				<use xlink:href="#SVGID_11_"  style="overflow:visible;"/>
			</clipPath>
			<path class="st5" d="M341.4,359.1c3.6-0.7,6.8,1.4,7.6,5c0.7,3.6-1.4,6.9-5,7.6s-6.8-1.5-7.6-5
				C335.7,363.1,337.9,359.8,341.4,359.1L341.4,359.1z M338.3,343.9c-11.8,2.4-19.5,14.1-17.1,25.8c2.4,11.8,14.1,19.5,25.8,17.1
				c11.8-2.4,19.5-14.1,17.1-25.9C361.8,349.2,350.1,341.5,338.3,343.9L338.3,343.9z"/>
		</g>
	</g>
</g>
</svg>
