<?xml version="1.0" encoding="utf-8"?>
<!-- Generator: Adobe Illustrator 19.0.0, SVG Export Plug-In . SVG Version: 6.00 Build 0)  -->
<svg version="1.1" id="Layer_1" xmlns="http://www.w3.org/2000/svg" xmlns:xlink="http://www.w3.org/1999/xlink" x="0px" y="0px"
	 viewBox="-49 141 512 512" enable-background="new -49 141 512 512" xml:space="preserve">
<g>
	<g>
		<defs>
			<rect id="SVGID_1_" x="-49" y="141" width="512" height="512"/>
		</defs>
		<clipPath id="SVGID_2_">
			<use xlink:href="#SVGID_1_"  overflow="visible"/>
		</clipPath>
		<path clip-path="url(#SVGID_2_)" fill="#FFFFFF" d="M257.9,235.8c26.2,0,48.2,7.5,63.7,21.1c15.5,13.6,25.4,33.4,26.2,62.3
			c0.2,6.2,4,11.7,9.8,14c39,15.4,68.4,58.1,68.4,109.3c0,65-46.4,115.7-101.7,115.7h-254c-44.6,0-82.2-40.9-82.2-93.8
			c0-46.7,29.8-84.2,66.9-92.2c8-1.7,13.3-9.4,12.1-17.5c-0.5-3.5-0.8-7-0.8-10.6c0-34.8,24.5-61,52.9-61c10,0,19.3,3.2,27.4,8.9
			c4,2.8,9.1,3.6,13.7,2.1c4.6-1.5,8.3-5.1,9.9-9.7c6.5-19.1,17.3-30.1,32.2-37.7S236.5,235.8,257.9,235.8L257.9,235.8z
			 M257.9,204.8c-24.5,0-48.6,3.6-69.6,14.3c-16.3,8.3-30.5,21.3-40.2,38.9c-9-3.7-18.8-5.9-29-5.9c-47.2,0-83.9,42.3-83.9,92.1
			c0,0.5,0.1,1.1,0.1,1.6C-10.8,362.2-43,409.6-43,464.4c0,67.9,49.9,124.8,113.2,124.8h254c74.1,0,132.8-66.8,132.8-146.7
			c0-59.3-31.8-111-78.9-134.1c-3-31.4-15.9-57.2-36-74.8C319.9,214.1,290,204.8,257.9,204.8L257.9,204.8z"/>
	</g>
</g>
<g>
	<g>
		<defs>
			<rect id="SVGID_3_" x="-49" y="141" width="512" height="512"/>
		</defs>
		<clipPath id="SVGID_4_">
			<use xlink:href="#SVGID_3_"  overflow="visible"/>
		</clipPath>
		<path clip-path="url(#SVGID_4_)" fill="#FFFFFF" d="M92.5,429.9c-2.6,0-4.9,1.3-6.4,3.4l-25.4,36.2c-1.7,2.3-2,5.3-0.8,7.8
			s3.6,4.3,6.4,4.5s5.5-1.1,7.1-3.4l25.4-36.2c1.7-2.4,1.9-5.5,0.6-8.1C98.2,431.5,95.5,429.9,92.5,429.9z M147.8,417.3
			c-3.6,0-6.7,2.5-7.5,6s0.9,7.1,4.1,8.7l66.3,34.1c2.5,1.3,5.4,1.1,7.8-0.4c2.3-1.5,3.7-4.1,3.6-6.9s-1.8-5.3-4.2-6.5l-66.3-34.1
			C150.4,417.6,149.1,417.3,147.8,417.3L147.8,417.3z M317.4,388.7c-2.3,0-4.5,1-5.9,2.8l-44.1,51.1c-2,2.1-2.7,5.1-1.8,7.8
			c0.9,2.7,3.2,4.8,6.1,5.2c2.8,0.5,5.7-0.6,7.5-2.9l44.1-51.1c2-2.3,2.5-5.5,1.3-8.3C323.2,390.5,320.4,388.7,317.4,388.7
			L317.4,388.7z"/>
	</g>
</g>
<g>
	<g>
		<defs>
			<rect id="SVGID_5_" x="-49" y="141" width="512" height="512"/>
		</defs>
		<clipPath id="SVGID_6_">
			<use xlink:href="#SVGID_5_"  overflow="visible"/>
		</clipPath>
		<path clip-path="url(#SVGID_6_)" fill="#FFFFFF" d="M44.3,497.1c3.6-0.7,6.8,1.4,7.6,5c0.7,3.6-1.4,6.9-5,7.6s-6.8-1.5-7.6-5
			C38.6,501.1,40.7,497.8,44.3,497.1z M41.2,481.9c-11.8,2.4-19.5,14.1-17.1,25.8c2.4,11.8,14.1,19.5,25.8,17.1
			c11.8-2.4,19.5-14.1,17.1-25.9C64.6,487.2,52.9,479.5,41.2,481.9L41.2,481.9z"/>
	</g>
</g>
<g>
	<g>
		<defs>
			<rect id="SVGID_7_" x="-49" y="141" width="512" height="512"/>
		</defs>
		<clipPath id="SVGID_8_">
			<use xlink:href="#SVGID_7_"  overflow="visible"/>
		</clipPath>
		<path clip-path="url(#SVGID_8_)" fill="#FFFFFF" d="M113.6,402.6c3.6-0.7,6.8,1.4,7.6,5c0.7,3.6-1.4,6.9-5,7.6s-6.8-1.5-7.6-5
			C107.9,406.6,110.1,403.4,113.6,402.6z M110.5,387.4c-11.8,2.4-19.5,14.1-17.1,25.8c2.4,11.8,14.1,19.5,25.8,17.1
			c11.8-2.4,19.5-14.1,17.1-25.9C134,392.8,122.3,385,110.5,387.4L110.5,387.4z"/>
	</g>
</g>
<g>
	<g>
		<defs>
			<rect id="SVGID_9_" x="-49" y="141" width="512" height="512"/>
		</defs>
		<clipPath id="SVGID_10_">
			<use xlink:href="#SVGID_9_"  overflow="visible"/>
		</clipPath>
		<path clip-path="url(#SVGID_10_)" fill="#FFFFFF" d="M246.6,467c3.6-0.7,6.8,1.4,7.6,5c0.7,3.6-1.4,6.9-5,7.6s-6.8-1.5-7.6-5
			C240.9,471,243,467.7,246.6,467z M243.5,451.8c-11.8,2.4-19.5,14.1-17.1,25.8c2.4,11.8,14.1,19.5,25.8,17.1
			c11.8-2.4,19.5-14.1,17.1-25.9S255.2,449.4,243.5,451.8L243.5,451.8z"/>
	</g>
</g>
<g>
	<g>
		<defs>
			<rect id="SVGID_11_" x="-49" y="141" width="512" height="512"/>
		</defs>
		<clipPath id="SVGID_12_">
			<use xlink:href="#SVGID_11_"  overflow="visible"/>
		</clipPath>
		<path clip-path="url(#SVGID_12_)" fill="#FFFFFF" d="M340.4,363.1c3.6-0.7,6.8,1.4,7.6,5c0.7,3.6-1.4,6.9-5,7.6s-6.8-1.5-7.6-5
			C334.7,367.1,336.9,363.8,340.4,363.1L340.4,363.1z M337.3,347.9c-11.8,2.4-19.5,14.1-17.1,25.8c2.4,11.8,14.1,19.5,25.8,17.1
			c11.8-2.4,19.5-14.1,17.1-25.9C360.8,353.2,349.1,345.5,337.3,347.9L337.3,347.9z"/>
	</g>
</g>
</svg>
