<?xml version="1.0" encoding="utf-8"?>
<!-- Generator: Adobe Illustrator 19.0.0, SVG Export Plug-In . SVG Version: 6.00 Build 0)  -->
<svg version="1.1" id="Layer_1" xmlns="http://www.w3.org/2000/svg" xmlns:xlink="http://www.w3.org/1999/xlink" x="0px" y="0px"
	 viewBox="-49 141 512 512" enable-background="new -49 141 512 512" xml:space="preserve">
<g id="OUTLINE">
	<path fill="#FFFFFF" d="M335.3,224.7c31.1,0,60.6,6,87.9,18v305.8c-24.8-7.7-58.1-14.9-96.1-14.9c-42,0-81.9,8.6-119.2,25.7
		c-37.2-17.1-77.2-25.7-119.2-25.7c-38,0-71.3,7.2-96.1,14.9V242.7c27.4-12,56.9-18,87.9-18c63.5,0,112.2,25.4,112.7,25.7l14.6,7.7
		l14.5-7.7C222.9,250.1,271.8,224.7,335.3,224.7 M335.3,194c-72.7,0-127.3,29.2-127.3,29.2S153.4,194,80.7,194
		c-36.4,0-77.6,7.4-118.7,29.5v370.2c0,0,54-29.2,126.8-29.2c36.4,0,77.6,7.4,119.2,29.2c41.5-22,82.7-29.2,119.2-29.2
		c72.9,0,126.8,29.2,126.8,29.2V223.5C412.9,201.4,371.7,194,335.3,194L335.3,194z"/>
	<rect x="192.6" y="236.7" fill="#FFFFFF" width="30.8" height="342.1"/>
</g>
</svg>
