<?xml version="1.0" encoding="utf-8"?>
<!-- Generator: Adobe Illustrator 19.0.0, SVG Export Plug-In . SVG Version: 6.00 Build 0)  -->
<svg version="1.1" id="Layer_1" xmlns="http://www.w3.org/2000/svg" xmlns:xlink="http://www.w3.org/1999/xlink" x="0px" y="0px"
	 viewBox="-49 190 512 414" enable-background="new -49 190 512 414" xml:space="preserve">
<g>
	<g>
		<defs>
			<rect id="SVGID_1_" x="-49" y="190" width="512" height="414"/>
		</defs>
		<clipPath id="SVGID_2_">
			<use xlink:href="#SVGID_1_"  overflow="visible"/>
		</clipPath>
		<path clip-path="url(#SVGID_2_)" fill="#F6881F" d="M419.5,487.8c0,15.4-12.5,27.9-27.9,27.9H21.7c-15.4,0-27.9-12.5-27.9-27.9
			V259.3c0-15.4,12.5-27.9,27.9-27.9h369.8c15.4,0,27.9,12.5,27.9,27.9V487.8z M21.7,206.6c-29.1,0-52.7,23.7-52.7,52.7v228.4
			c0,29.1,23.7,52.7,52.7,52.7h144.9c1.7,0,3.1,1.4,3.1,3.1v17.5c0,1.7-1.4,3.1-3.1,3.1h-50.8c-11.1,0-20.1,9-20.1,20.1v3.7
			c0,1.7,1.4,3.1,3.1,3.1h215.8c1.7,0,3.1-1.4,3.1-3.1v-3.7c0-11.1-9-20.1-20.1-20.1h-50.8c-1.7,0-3.1-1.4-3.1-3.1v-17.5
			c0-1.7,1.4-3.1,3.1-3.1h144.9c29.1,0,52.7-23.7,52.7-52.7V259.3c-0.1-29.1-23.8-52.7-52.8-52.7H21.7z"/>
	</g>
</g>
<g>
	<g>
		<defs>
			<rect id="SVGID_3_" x="-49" y="190" width="512" height="414"/>
		</defs>
		<clipPath id="SVGID_4_">
			<use xlink:href="#SVGID_3_"  overflow="visible"/>
		</clipPath>
		<path clip-path="url(#SVGID_4_)" fill="#F6881F" d="M111.7,393.6l21.8,10.5c3,1.5,6.1,0,7.1-3.2l10.7-39.2
			c0.8-3.2,3.9-4.5,6.8-2.7l42.2,25.2c2.9,1.7,6.6,0.7,8.3-2.1l30.2-51.1c1.7-2.9,5.6-6.3,8.5-7.8l75.4-35c3.1-1.4,6.6-0.1,8.1,3
			l0.6,1.2c1.4,3.1,0.1,6.6-3,8.1l-71.6,33.2c-3.1,1.4-6.9,4.9-8.5,7.8l-34.9,59c-1.7,2.9-5.4,3.8-8.3,2.1l-38.6-23.1
			c-2.9-1.7-5.9-0.5-6.8,2.7l-10.2,37.6c-0.8,3.2-4,4.6-7.1,3.2l-27.9-13.4c-3-1.5-7.4-0.7-9.7,1.6L88,427.5
			c-2.4,2.3-6.2,2.3-8.5-0.1l-0.9-0.9c-2.3-2.4-2.3-6.2,0.1-8.5l23.3-22.7C104.2,392.9,108.7,392.1,111.7,393.6z"/>
	</g>
</g>
<g>
	<g>
		<defs>
			<rect id="SVGID_5_" x="-49" y="190" width="512" height="414"/>
		</defs>
		<clipPath id="SVGID_6_">
			<use xlink:href="#SVGID_5_"  overflow="visible"/>
		</clipPath>
		<path clip-path="url(#SVGID_6_)" fill="#F6881F" d="M386.7,459.4l-32-19.5c-1.4-0.8-2.6-0.2-2.6,1.5v9.8c0,1.7-1.4,3.1-3.1,3.1
			H56.6c-1.7,0-3.1-1.4-3.1-3.1V302.7c0-1.7,1.4-3.1,3.1-3.1h9.8c1.7,0,2.3-1.1,1.5-2.6l-19.4-31.9c-0.8-1.4-2.2-1.4-3.2,0L25.9,297
			c-0.8,1.4-0.2,2.6,1.5,2.6h9.8c1.7,0,3.1,1.4,3.1,3.1v161.9c0,1.7,1.4,3.1,3.1,3.1h305.9c1.7,0,3.1,1.4,3.1,3.1v9.7
			c0,1.7,1.1,2.3,2.6,1.5l31.9-19.4C388.1,461.7,388.1,460.3,386.7,459.4z"/>
	</g>
</g>
</svg>
