<?xml version="1.0" encoding="utf-8"?>
<!-- Generator: Adobe Illustrator 19.0.0, SVG Export Plug-In . SVG Version: 6.00 Build 0)  -->
<svg version="1.1" id="Layer_1" xmlns="http://www.w3.org/2000/svg" xmlns:xlink="http://www.w3.org/1999/xlink" x="0px" y="0px"
	 viewBox="-49 141 512 512" style="enable-background:new -49 141 512 512;" xml:space="preserve">
<style type="text/css">
	.st0{fill:#51C8E8;}
</style>
<g id="OUTLINE">
	<path class="st0" d="M332.3,214c31.1,0,60.6,6,87.9,18v305.8c-24.8-7.7-58.1-14.9-96.1-14.9c-42,0-81.9,8.6-119.2,25.7
		c-37.2-17.1-77.2-25.7-119.2-25.7c-38,0-71.3,7.2-96.1,14.9V232c27.4-12,56.9-18,87.9-18c63.5,0,112.2,25.4,112.7,25.7l14.6,7.7
		l14.5-7.7C219.9,239.4,268.8,214,332.3,214 M332.3,183.3c-72.7,0-127.3,29.2-127.3,29.2s-54.6-29.2-127.3-29.2
		c-36.4,0-77.6,7.4-118.7,29.5V583c0,0,54-29.2,126.8-29.2c36.4,0,77.6,7.4,119.2,29.2c41.5-22,82.7-29.2,119.2-29.2
		C397.1,553.8,451,583,451,583V212.8C409.9,190.7,368.7,183.3,332.3,183.3L332.3,183.3z"/>
	<rect x="189.6" y="226" class="st0" width="30.8" height="342.1"/>
</g>
</svg>
