<?xml version="1.0" encoding="utf-8"?>
<!-- Generator: Adobe Illustrator 19.0.0, SVG Export Plug-In . SVG Version: 6.00 Build 0)  -->
<svg version="1.1" id="Layer_1" xmlns="http://www.w3.org/2000/svg" xmlns:xlink="http://www.w3.org/1999/xlink" x="0px" y="0px"
	 viewBox="-49 141 512 512" enable-background="new -49 141 512 512" xml:space="preserve">
<path fill="#FFFFFF" d="M310.4,149.9c-12.9,0-23.3,10.4-23.3,23.3v46.6c0,12.8,10.5,23.3,23.3,23.3c12.9,0,23.3-10.4,23.3-23.3
	v-46.7C333.7,160.3,323.3,149.9,310.4,149.9z M95,149.9c-9.7,0-17.5,7.8-17.5,17.5v58.1c0,9.7,7.8,17.5,17.5,17.5h11.6
	c9.7,0,17.5-7.8,17.5-17.5v-58.1c0-9.7-7.8-17.5-17.5-17.5H95z M263.9,196.4H147.4V240c0,14.6-15.6,26.3-34.9,26.3H89.3
	c-19.4,0-34.9-11.8-34.9-26.3v-43.6h-78.6c-8.1,0-14.6,6.8-14.6,15.1v412c0,8.3,6.5,15.1,14.6,15.1h459.7c8.1,0,14.6-6.8,14.6-15.1
	v-412c0-8.3-6.6-15.1-14.6-15.1H357V240c0,14.6-15.6,26.3-34.9,26.3h-23.2c-19.4,0-34.9-11.8-34.9-26.3v-43.6H263.9z"/>
<path fill="#F6881F" d="M357,359.4v69.8h69.9v-69.8L357,359.4L357,359.4z M263.9,359.4v69.8h69.9v-69.8L263.9,359.4L263.9,359.4z
	 M170.7,359.4v69.8h69.9v-69.8L170.7,359.4L170.7,359.4z M77.6,359.4v69.8h69.9v-69.8L77.6,359.4L77.6,359.4z M-15.6,359.4v69.8
	h69.9v-69.8L-15.6,359.4L-15.6,359.4z M357,452.4v69.8h69.9v-69.8L357,452.4L357,452.4z M263.9,452.4v69.8h69.9v-69.8L263.9,452.4
	L263.9,452.4z M77.6,452.4v69.8h69.9v-69.8L77.6,452.4L77.6,452.4z M-15.6,452.4v69.8h69.9v-69.8L-15.6,452.4L-15.6,452.4z
	 M357,545.5v69.8h59.8c5.5,0,10-3.9,10-8.7v-61.1H357L357,545.5z M263.9,545.5v69.8h69.9v-69.8H263.9z M170.7,545.5v69.8h69.9v-69.8
	H170.7z M77.6,545.5v69.8h69.9v-69.8H77.6z M-15.6,545.5v61.1c0,4.8,4.5,8.7,10,8.7h59.8v-69.8H-15.6z"/>
</svg>
