<?xml version="1.0" encoding="utf-8"?>
<!-- Generator: Adobe Illustrator 19.0.0, SVG Export Plug-In . SVG Version: 6.00 Build 0)  -->
<svg version="1.1" id="Layer_1" xmlns="http://www.w3.org/2000/svg" xmlns:xlink="http://www.w3.org/1999/xlink" x="0px" y="0px"
	 viewBox="-49 141 512 512" style="enable-background:new -49 141 512 512;" xml:space="preserve">
<style type="text/css">
	.st0{fill:#51C8E8;}
	.st1{fill:#FFFFFF;}
</style>
<path class="st0" d="M317.3,144.9c-12.9,0-23.3,10.4-23.3,23.3v46.6c0,12.8,10.5,23.3,23.3,23.3c12.9,0,23.3-10.4,23.3-23.3v-46.7
	C340.6,155.3,330.2,144.9,317.3,144.9z M101.9,144.9c-9.7,0-17.5,7.8-17.5,17.5v58.1c0,9.7,7.8,17.5,17.5,17.5h11.6
	c9.7,0,17.5-7.8,17.5-17.5v-58.1c0-9.7-7.8-17.5-17.5-17.5H101.9z M270.8,191.4H154.3V235c0,14.6-15.6,26.3-34.9,26.3H96.2
	c-19.4,0-34.9-11.8-34.9-26.3v-43.6h-78.6c-8.1,0-14.6,6.8-14.6,15.1v412c0,8.3,6.5,15.1,14.6,15.1h459.7c8.1,0,14.6-6.8,14.6-15.1
	v-412c0-8.3-6.6-15.1-14.6-15.1h-78.5V235c0,14.6-15.6,26.3-34.9,26.3h-23.2c-19.4,0-34.9-11.8-34.9-26.3v-43.6H270.8z"/>
<path class="st1" d="M363.9,354.4v69.8h69.9v-69.8L363.9,354.4L363.9,354.4z M270.8,354.4v69.8h69.9v-69.8L270.8,354.4L270.8,354.4z
	 M177.6,354.4v69.8h69.9v-69.8L177.6,354.4L177.6,354.4z M84.5,354.4v69.8h69.9v-69.8L84.5,354.4L84.5,354.4z M-8.7,354.4v69.8h69.9
	v-69.8L-8.7,354.4L-8.7,354.4z M363.9,447.4v69.8h69.9v-69.8L363.9,447.4L363.9,447.4z M270.8,447.4v69.8h69.9v-69.8L270.8,447.4
	L270.8,447.4z M84.5,447.4v69.8h69.9v-69.8L84.5,447.4L84.5,447.4z M-8.7,447.4v69.8h69.9v-69.8L-8.7,447.4L-8.7,447.4z
	 M363.9,540.5v69.8h59.8c5.5,0,10-3.9,10-8.7v-61.1H363.9L363.9,540.5z M270.8,540.5v69.8h69.9v-69.8H270.8z M177.6,540.5v69.8h69.9
	v-69.8H177.6z M84.5,540.5v69.8h69.9v-69.8H84.5z M-8.7,540.5v61.1c0,4.8,4.5,8.7,10,8.7h59.8v-69.8H-8.7z"/>
</svg>
