<?xml version="1.0" encoding="utf-8"?>
<!-- Generator: Adobe Illustrator 19.0.0, SVG Export Plug-In . SVG Version: 6.00 Build 0)  -->
<svg version="1.1" id="Layer_1" xmlns="http://www.w3.org/2000/svg" xmlns:xlink="http://www.w3.org/1999/xlink" x="0px" y="0px"
	 viewBox="-49 141 512 512" enable-background="new -49 141 512 512" xml:space="preserve">
<g>
	<g display="none">
		<rect id="SVGID_5_" x="-49" y="198" display="inline" fill="#FFFFFF" width="510" height="80"/>
	</g>
</g>
<g id="g8250" transform="translate(-24026.037,3225.9861)">
	<path id="rect8244" opacity="0.9123" fill="#005A84" enable-background="new    " d="M23998.5-2704.8h470.8
		c8.7,0,15.8,7.1,15.8,15.8v47.3c0,8.7-7.1,15.8-15.8,15.8h-470.8c-8.7,0-15.8-7.1-15.8-15.8v-47.3
		C23982.7-2697.8,23989.8-2704.8,23998.5-2704.8z"/>
	<path id="rect8246" opacity="0.9123" fill="#005A84" enable-background="new    " d="M23998.5-2862.4h470.8
		c8.7,0,15.8,7.1,15.8,15.8v47.3c0,8.7-7.1,15.8-15.8,15.8h-470.8c-8.7,0-15.8-7.1-15.8-15.8v-47.3
		C23982.7-2855.3,23989.8-2862.4,23998.5-2862.4z"/>
	<path id="rect8248" opacity="0.9123" fill="#005A84" enable-background="new    " d="M23998.5-3020h470.8c8.7,0,15.8,7.1,15.8,15.8
		v47.3c0,8.7-7.1,15.8-15.8,15.8h-470.8c-8.7,0-15.8-7.1-15.8-15.8v-47.3C23982.7-3012.9,23989.8-3020,23998.5-3020z"/>
</g>
</svg>
