<?xml version="1.0" encoding="utf-8"?>
<!-- Generator: Adobe Illustrator 19.0.0, SVG Export Plug-In . SVG Version: 6.00 Build 0)  -->
<svg version="1.1" id="Layer_1" xmlns="http://www.w3.org/2000/svg" xmlns:xlink="http://www.w3.org/1999/xlink" x="0px" y="0px"
	 viewBox="-49 141 512 512" enable-background="new -49 141 512 512" xml:space="preserve">
<g>
	<g>
		<defs>
			<polyline id="SVGID_1_" points="463,654 -49,654 -49,142 463,142 			"/>
		</defs>
		<clipPath id="SVGID_2_">
			<use xlink:href="#SVGID_1_"  overflow="visible"/>
		</clipPath>
		<path clip-path="url(#SVGID_2_)" fill="#F6881F" d="M110,168.8h141.1v58.1H110V168.8z M208.2,606.1c0-7.4-6-13.4-13.4-13.4H15.2
			c-0.8,0-2.2-0.8-2.4-1.3V198.6h70.4V212v13.4v14.9c0,7.4,6,13.4,13.4,13.4h167.9c7.4,0,13.4-6,13.4-13.4v-14.9V212v-13.4h67.4
			v217.2c0,7.4,6,13.4,13.4,13.4s13.4-6,13.4-13.4V185.2c0-7.4-6-13.4-13.4-13.4h-80.9v-16.4c0-7.4-6-13.4-13.4-13.4H96.6
			c-7.4,0-13.4,6-13.4,13.4v16.3H-0.6c-7.4,0-13.4,6-13.4,13.4v406.2c0,16.8,15.1,28.1,29.3,28.1h179.6
			C202.2,619.5,208.2,613.5,208.2,606.1z"/>
	</g>
</g>
<g>
	<g>
		<defs>
			<polyline id="SVGID_3_" points="463,654 -49,654 -49,142 463,142 			"/>
		</defs>
		<clipPath id="SVGID_4_">
			<use xlink:href="#SVGID_3_"  overflow="visible"/>
		</clipPath>
		<path clip-path="url(#SVGID_4_)" fill="#F6881F" d="M273.4,286H82.9c-2.5,0-4.5,2-4.5,4.5s2,4.5,4.5,4.5h190.5
			c2.5,0,4.5-2,4.5-4.5C277.8,288,275.8,286,273.4,286z"/>
	</g>
</g>
<g>
	<g>
		<defs>
			<polyline id="SVGID_5_" points="463,654 -49,654 -49,142 463,142 			"/>
		</defs>
		<clipPath id="SVGID_6_">
			<use xlink:href="#SVGID_5_"  overflow="visible"/>
		</clipPath>
		<path clip-path="url(#SVGID_6_)" fill="#F6881F" d="M273.4,338.7H82.9c-2.5,0-4.5,2-4.5,4.5s2,4.5,4.5,4.5h190.5
			c2.5,0,4.5-2,4.5-4.5S275.8,338.7,273.4,338.7z"/>
	</g>
</g>
<g>
	<g>
		<defs>
			<polyline id="SVGID_7_" points="463,654 -49,654 -49,141 463,141 			"/>
		</defs>
		<clipPath id="SVGID_8_">
			<use xlink:href="#SVGID_7_"  overflow="visible"/>
		</clipPath>
		<path clip-path="url(#SVGID_8_)" fill="#F6881F" d="M273.4,388.2H82.9c-2.5,0-4.5,2-4.5,4.5s2,4.5,4.5,4.5h190.5
			c2.5,0,4.5-2,4.5-4.5C277.8,390.3,275.8,388.2,273.4,388.2z"/>
	</g>
</g>
<path fill="#F6881F" d="M368.6,598.1c-16.6,16.6-38.7,25.8-62.3,25.8c-23.5,0-45.6-9.2-62.3-25.8c-16.6-16.6-25.8-38.7-25.8-62.3
	c0-23.5,9.2-45.6,25.8-62.3c16.6-16.6,38.7-25.8,62.3-25.8c23.5,0,45.6,9.1,62.3,25.8C402.9,507.9,402.9,563.8,368.6,598.1z
	 M387.7,454.5c-21.8-21.7-50.7-33.7-81.4-33.7c-30.8,0-59.7,12-81.4,33.7c-21.8,21.7-33.7,50.7-33.7,81.4c0,30.8,12,59.7,33.7,81.4
	c21.7,21.8,50.6,33.7,81.4,33.7c30.7,0,59.6-12,81.4-33.7C432.6,572.4,432.6,499.4,387.7,454.5z"/>
<path fill="#F6881F" d="M363.6,529.8h-49.9v-49.9c0-3.7-3-6.8-6.8-6.8c-3.7,0-6.8,3-6.8,6.8v49.9h-49.9c-3.7,0-6.8,3-6.8,6.8
	c0,3.7,3,6.8,6.8,6.8h49.9v49.9c0,3.7,3,6.8,6.8,6.8c3.7,0,6.8-3,6.8-6.8v-49.9h49.9c3.7,0,6.8-3,6.8-6.8S367.3,529.8,363.6,529.8z"
	/>
<path fill="#F6881F" d="M215.2,442.8c0-2.5-2-4.5-4.5-4.5H84.4c-2.5,0-4.5,2-4.5,4.5s2,4.5,4.5,4.5h126.3
	C213.2,447.3,215.2,445.2,215.2,442.8z"/>
<path fill="#F6881F" d="M84.4,490.8c-2.5,0-4.5,2-4.5,4.5s2,4.5,4.5,4.5H183c2.5,0,4.5-2,4.5-4.5s-2-4.5-4.5-4.5H84.4z"/>
</svg>
