<?xml version="1.0" encoding="utf-8"?>
<!-- Generator: Adobe Illustrator 19.0.0, SVG Export Plug-In . SVG Version: 6.00 Build 0)  -->
<svg version="1.1" id="Layer_1" xmlns="http://www.w3.org/2000/svg" xmlns:xlink="http://www.w3.org/1999/xlink" x="0px" y="0px"
	 viewBox="0 0 560 560" enable-background="new 0 0 560 560" xml:space="preserve">
<path fill="#FFFFFF" d="M180,51.8h141.1v58.1H180V51.8z M278.2,489.1c0-7.4-6-13.4-13.4-13.4H85.2c-0.8,0-2.2-0.8-2.4-1.3V81.6h70.4
	V95v13.4v14.9c0,7.4,6,13.4,13.4,13.4h167.9c7.4,0,13.4-6,13.4-13.4v-14.9V95V81.6h67.4v217.2c0,7.4,6,13.4,13.4,13.4
	s13.4-6,13.4-13.4V68.2c0-7.4-6-13.4-13.4-13.4h-80.9V38.4c0-7.4-6-13.4-13.4-13.4H166.6c-7.4,0-13.4,6-13.4,13.4v16.3H69.4
	c-7.4,0-13.4,6-13.4,13.4v406.2c0,16.8,15.1,28.1,29.3,28.1h179.6C272.2,502.5,278.2,496.5,278.2,489.1z"/>
<path fill="#FFFFFF" d="M343.4,169H152.9c-2.5,0-4.5,2-4.5,4.5s2,4.5,4.5,4.5h190.5c2.5,0,4.5-2,4.5-4.5
	C347.8,171,345.8,169,343.4,169z"/>
<path fill="#FFFFFF" d="M343.4,221.7H152.9c-2.5,0-4.5,2-4.5,4.5s2,4.5,4.5,4.5h190.5c2.5,0,4.5-2,4.5-4.5S345.8,221.7,343.4,221.7z
	"/>
<path fill="#FFFFFF" d="M343.4,271.2H152.9c-2.5,0-4.5,2-4.5,4.5s2,4.5,4.5,4.5h190.5c2.5,0,4.5-2,4.5-4.5
	C347.8,273.3,345.8,271.2,343.4,271.2z"/>
<path fill="#FFFFFF" d="M438.6,481.1c-16.6,16.6-38.7,25.8-62.3,25.8c-23.5,0-45.6-9.2-62.3-25.8c-16.6-16.6-25.8-38.7-25.8-62.3
	c0-23.5,9.2-45.6,25.8-62.3c16.6-16.6,38.7-25.8,62.3-25.8c23.5,0,45.6,9.1,62.3,25.8C472.9,390.9,472.9,446.8,438.6,481.1z
	 M457.7,337.5c-21.8-21.7-50.7-33.7-81.4-33.7c-30.8,0-59.7,12-81.4,33.7c-21.8,21.7-33.7,50.7-33.7,81.4c0,30.8,12,59.7,33.7,81.4
	c21.7,21.8,50.6,33.7,81.4,33.7c30.7,0,59.6-12,81.4-33.7C502.6,455.4,502.6,382.4,457.7,337.5z"/>
<path fill="#FFFFFF" d="M433.6,412.8h-49.9v-49.9c0-3.7-3-6.8-6.8-6.8c-3.7,0-6.8,3-6.8,6.8v49.9h-49.9c-3.7,0-6.8,3-6.8,6.8
	c0,3.7,3,6.8,6.8,6.8h49.9v49.9c0,3.7,3,6.8,6.8,6.8c3.7,0,6.8-3,6.8-6.8v-49.9h49.9c3.7,0,6.8-3,6.8-6.8S437.3,412.8,433.6,412.8z"
	/>
<path fill="#FFFFFF" d="M285.2,325.8c0-2.5-2-4.5-4.5-4.5H154.4c-2.5,0-4.5,2-4.5,4.5s2,4.5,4.5,4.5h126.3
	C283.2,330.3,285.2,328.2,285.2,325.8z"/>
<path fill="#FFFFFF" d="M154.4,373.8c-2.5,0-4.5,2-4.5,4.5s2,4.5,4.5,4.5H253c2.5,0,4.5-2,4.5-4.5s-2-4.5-4.5-4.5H154.4z"/>
</svg>
