<?xml version="1.0" encoding="utf-8"?>
<!-- Generator: Adobe Illustrator 19.0.0, SVG Export Plug-In . SVG Version: 6.00 Build 0)  -->
<svg version="1.1" id="Layer_1" xmlns="http://www.w3.org/2000/svg" xmlns:xlink="http://www.w3.org/1999/xlink" x="0px" y="0px"
	 viewBox="-49 150 512 493" enable-background="new -49 150 512 493" xml:space="preserve">
<g>
	<g>
		<defs>
			<rect id="SVGID_1_" x="-49" y="150" width="512" height="493"/>
		</defs>
		<clipPath id="SVGID_2_">
			<use xlink:href="#SVGID_1_"  overflow="visible"/>
		</clipPath>
		<path clip-path="url(#SVGID_2_)" fill="#FFFFFF" d="M392.1,531.1c0,0-78.9-29-85.3-34.6c0,0-40.5-16-43.5-56.5
			c0,0-1.3-22.4,10.1-34.1c0,0,16-14.4,19.5-48.5c0,0,39.2-14.4,13.1-57c0,0,26.1-106.3-46.4-127.4c-72.5-20.8-115.2,2.9-138.4,32
			c0,0-22.4,31.7-5.9,94.9c0,0-29.1,29,6.4,53.6c0.5,0.3,1.1,0.8,1.3,1.1l0,0c0.5,0.3,0.8,0.8,1.1,1.3l0,0c0.3,0.5,0.5,0.8,0.8,1.3
			v0.3c0.3,0.5,0.3,1.1,0.5,1.6l0.5,0.8c0,0,2.1,10.7,4.8,19.2c1.1,1.6,1.6,3.2,2.4,5.1c0.8,1.3,1.6,2.4,2.1,4
			c0.3,0.5,0.5,1.1,0.8,1.6l0,0c0.3,0.5,0.5,1.1,0.8,1.9c5.9,6.4,23.7,33.3,19.7,48c0,3.2-0.8,6.1-2.1,8.8c0,1.1,0,2.1-0.3,3.2
			c-2.7,9.6-4.8,16.8-20.8,29.6c0,0-42.4,31.4-89.3,42.4c-2.4,1.1-4.8,1.9-7.2,2.4c-11.2,5.3-47.7,23.2-63.2,35.2
			c-1.1,1.1-1.9,2.1-3.2,3.2c-0.3,0.3-0.3,0.3-0.5,0.5c-0.8,2.1-1.6,4.5-2.7,6.9c0,1.6-0.3,3.2-0.5,4.5c0.3,17.9-0.3,56.2-0.3,56.2
			h486.4V574C452.9,573.7,443.3,547.6,392.1,531.1z"/>
	</g>
</g>
</svg>
