<?xml version="1.0" encoding="utf-8"?>
<!-- Generator: Adobe Illustrator 19.0.0, SVG Export Plug-In . SVG Version: 6.00 Build 0)  -->
<svg version="1.1" id="Layer_1" xmlns="http://www.w3.org/2000/svg" xmlns:xlink="http://www.w3.org/1999/xlink" x="0px" y="0px"
	 viewBox="0 0 512 512" enable-background="new 0 0 512 512" xml:space="preserve">
<path fill="#e7e8e9" d="M170.2,117.9c-0.4,0.3-0.7,0.7-1.1,1c-12.7,2.3-23.1,11.6-26.7,24.1c-3.6,12.4,0.1,25.8,9.6,34.6l61.9,61.9l-61.9,61.9
	c-8.6,8.8-11.9,21.5-8.6,33.3c3.3,11.8,12.7,21,24.6,24.1c11.9,3,24.5-0.5,33.1-9.4l60.8-61.9l62.9,62.9c8.5,8.9,21.2,12.5,33.2,9.5
	c12-3,21.4-12.2,24.7-24.1c3.3-11.9-0.1-24.6-8.8-33.4l-62.9-62.9l62.9-62.9c11-10.3,14-26.5,7.4-40c-6.6-13.5-21.3-21.1-36.2-18.6
	c-7.6,0.8-14.8,4.2-20.3,9.6l-61.9,62.9l-61.9-61.9C193.4,120,181.7,116,170.2,117.9L170.2,117.9z"/>
</svg>
