<?xml version="1.0" encoding="utf-8"?>
<!-- Generator: Adobe Illustrator 19.0.0, SVG Export Plug-In . SVG Version: 6.00 Build 0)  -->
<svg version="1.1" id="Layer_1" xmlns="http://www.w3.org/2000/svg" xmlns:xlink="http://www.w3.org/1999/xlink" x="0px" y="0px"
	 viewBox="-49 141 512 512" enable-background="new -49 141 512 512" xml:space="preserve">
<g>
	<g>
		<defs>
			<polyline id="SVGID_1_" points="-49,141 463,141 463,653 -49,653 			"/>
		</defs>
		<clipPath id="SVGID_2_">
			<use xlink:href="#SVGID_1_"  overflow="visible"/>
		</clipPath>
		<path clip-path="url(#SVGID_2_)" fill="#FFFFFF" d="M2.9,194.9h408.2c8.5,0,14.9,6.4,14.9,14.9v287c0,8.5-6.4,14.9-14.9,14.9H2.9
			c-8.5,0-14.9-6.4-14.9-14.9v-287C-12,201.3-5.6,194.9,2.9,194.9z M2.9,163.9c-25.2,0-45.9,20.7-45.9,45.9v287
			c0,25.1,20.7,45.9,45.9,45.9h408.2c25.1,0,45.9-20.7,45.9-45.9v-287c0-25.1-20.7-45.9-45.9-45.9H2.9L2.9,163.9z"/>
	</g>
</g>
<g>
	<g>
		<defs>
			<polyline id="SVGID_3_" points="-49,141 463,141 463,653 -49,653 			"/>
		</defs>
		<clipPath id="SVGID_4_">
			<use xlink:href="#SVGID_3_"  overflow="visible"/>
		</clipPath>
		<path clip-path="url(#SVGID_4_)" fill="#FFFFFF" d="M152.8,542.7v42.8H81.6c-5.6-0.1-10.8,2.9-13.6,7.7s-2.8,10.8,0,15.6
			c2.8,4.8,8,7.8,13.6,7.7h250.8c5.6,0.1,10.8-2.9,13.6-7.7c2.8-4.8,2.8-10.8,0-15.6s-8-7.8-13.6-7.7h-71.2v-42.7
			C225.2,542.9,189,542.8,152.8,542.7z"/>
	</g>
</g>
<g>
	<g>
		<defs>
			<polyline id="SVGID_5_" points="-49,141 463,141 463,653 -49,653 			"/>
		</defs>
		<clipPath id="SVGID_6_">
			<use xlink:href="#SVGID_5_"  overflow="visible"/>
		</clipPath>
		<path clip-path="url(#SVGID_6_)" fill="#FFFFFF" d="M83.3,345c-2.6,0.1-4.9,1.4-6.3,3.5l-29.9,45.1c-1.6,2.3-1.8,5.3-0.6,7.8
			c1.2,2.5,3.7,4.2,6.5,4.3c2.8,0.2,5.5-1.2,7-3.5l29.9-45.1c1.7-2.4,1.8-5.5,0.4-8.1C89,346.5,86.3,344.9,83.3,345z M150.5,327.9
			c-3.6,0.1-6.6,2.7-7.3,6.2s1.1,7,4.3,8.6l82.1,39.6c2.5,1.2,5.5,1,7.8-0.6s3.6-4.2,3.4-7s-1.9-5.2-4.4-6.4l-82.1-39.6
			C153.1,328.1,151.8,327.8,150.5,327.9z M356.7,287.7c-2.3,0.1-4.4,1.1-5.8,2.9l-52.4,63.8c-1.8,2.1-2.3,5.1-1.3,7.7
			c1,2.6,3.3,4.5,6,4.9c2.7,0.4,5.5-0.6,7.3-2.8l52.4-63.8c2-2.3,2.4-5.6,1.1-8.4C362.6,289.4,359.8,287.6,356.7,287.7z"/>
	</g>
</g>
<g>
	<g>
		<defs>
			<polyline id="SVGID_7_" points="-49,141 463,141 463,653 -49,653 			"/>
		</defs>
		<clipPath id="SVGID_8_">
			<use xlink:href="#SVGID_7_"  overflow="visible"/>
		</clipPath>
		<path clip-path="url(#SVGID_8_)" fill="#FFFFFF" d="M26,425.2c5.2-1.2,10.2,1.9,11.4,7.1c1.2,5.2-1.9,10.3-7.1,11.5
			s-10.3-1.9-11.5-7.2C17.6,431.4,20.8,426.4,26,425.2L26,425.2z M22.5,410c-13.4,3.1-21.9,16.6-18.8,30
			c3.1,13.4,16.7,21.9,30.1,18.8s21.9-16.7,18.8-30.1C49.5,415.4,35.9,407,22.5,410L22.5,410z"/>
	</g>
</g>
<g>
	<g>
		<defs>
			<polyline id="SVGID_9_" points="-49,141 463,141 463,653 -49,653 			"/>
		</defs>
		<clipPath id="SVGID_10_">
			<use xlink:href="#SVGID_9_"  overflow="visible"/>
		</clipPath>
		<path clip-path="url(#SVGID_10_)" fill="#FFFFFF" d="M107.8,307.6c5.2-1.2,10.2,1.9,11.4,7.1s-1.9,10.3-7.1,11.5
			c-5.2,1.2-10.3-1.9-11.5-7.2C99.5,313.8,102.6,308.8,107.8,307.6L107.8,307.6z M104.4,292.5c-13.4,3.1-21.9,16.6-18.8,30
			c3.1,13.4,16.7,21.9,30.1,18.8c13.4-3.1,21.9-16.7,18.8-30.1C131.3,297.9,117.8,289.4,104.4,292.5L104.4,292.5z"/>
	</g>
</g>
<g>
	<g>
		<defs>
			<polyline id="SVGID_11_" points="-49,141 463,141 463,653 -49,653 			"/>
		</defs>
		<clipPath id="SVGID_12_">
			<use xlink:href="#SVGID_11_"  overflow="visible"/>
		</clipPath>
		<path clip-path="url(#SVGID_12_)" fill="#FFFFFF" d="M272.2,382.2c5.2-1.2,10.2,1.9,11.4,7.1c1.2,5.2-1.9,10.3-7.1,11.5
			c-5.2,1.2-10.3-1.9-11.5-7.2C263.8,388.4,267,383.4,272.2,382.2L272.2,382.2z M268.7,367.1c-13.4,3.1-21.9,16.6-18.8,30
			s16.7,21.9,30.1,18.8s21.9-16.7,18.8-30.1S282.1,364,268.7,367.1L268.7,367.1z"/>
	</g>
</g>
<g>
	<g>
		<defs>
			<polyline id="SVGID_13_" points="-49,141 463,141 463,653 -49,653 			"/>
		</defs>
		<clipPath id="SVGID_14_">
			<use xlink:href="#SVGID_13_"  overflow="visible"/>
		</clipPath>
		<path clip-path="url(#SVGID_14_)" fill="#FFFFFF" d="M383.7,252.4c5.2-1.2,10.2,1.9,11.4,7.1c1.2,5.2-1.9,10.3-7.1,11.5
			s-10.3-1.9-11.5-7.2C375.3,258.6,378.5,253.6,383.7,252.4L383.7,252.4z M380.2,237.2c-13.4,3.1-21.9,16.6-18.8,30
			c3.1,13.4,16.7,21.9,30.1,18.8c13.4-3.1,21.9-16.7,18.8-30.1C407.2,242.6,393.6,234.2,380.2,237.2L380.2,237.2z"/>
	</g>
</g>
</svg>
